/* XPM */
static char *_10cb1543e564520e8b2b47a743b61b2ONRAn4jEtEUqUncv[] = {
/* columns rows colors chars-per-pixel */
"32 32 135 2 ",
"   c #5B6F18",
".  c #577116",
"X  c #5C7615",
"o  c #577418",
"O  c #5D751A",
"+  c #5F791C",
"@  c #627A1E",
"#  c #5F7C20",
"$  c #647D22",
"%  c #697E25",
"&  c #668125",
"*  c #698226",
"=  c #678228",
"-  c #6C872A",
";  c #6C862B",
":  c #6D862B",
">  c #6D862A",
",  c #6F862B",
"<  c #6E872B",
"1  c #6D8529",
"2  c #6D812C",
"3  c #6B852C",
"4  c #6C842C",
"5  c #6D842C",
"6  c #6D852D",
"7  c #6D872C",
"8  c #6C862D",
"9  c #6F862C",
"0  c #6E872C",
"q  c #6E862E",
"w  c #6F862E",
"e  c #6B8429",
"r  c #6F8928",
"t  c #6D882B",
"y  c #6F882A",
"u  c #6B882C",
"i  c #6F882C",
"p  c #6E892C",
"a  c #6E882D",
"s  c #6F882D",
"d  c #6F8A2D",
"f  c #6F892E",
"g  c #6E882F",
"h  c #6D8A2E",
"j  c #6D892C",
"k  c #718627",
"l  c #70852A",
"z  c #70842B",
"x  c #70872C",
"c  c #70872D",
"v  c #72862D",
"b  c #70872F",
"n  c #71862C",
"m  c #70892B",
"M  c #71892B",
"N  c #71882D",
"B  c #70892D",
"V  c #728A2C",
"C  c #728B2D",
"Z  c #738B2D",
"A  c #71882E",
"S  c #70892E",
"D  c #72892E",
"F  c #72892F",
"G  c #718A2E",
"H  c #708B2E",
"J  c #708A2F",
"K  c #718A2F",
"L  c #728B2F",
"P  c #738D2C",
"I  c #738C2E",
"U  c #728D2E",
"Y  c #758D2D",
"T  c #748E2D",
"R  c #748C2E",
"E  c #768E2E",
"W  c #72892E",
"Q  c #6F8930",
"!  c #718830",
"~  c #718931",
"^  c #718B30",
"/  c #738A30",
"(  c #728B30",
")  c #728A32",
"_  c #738B33",
"`  c #748B30",
"'  c #748B31",
"]  c #738C30",
"[  c #728D30",
"{  c #728C31",
"}  c #738C31",
"|  c #738E31",
" . c #738D32",
".. c #718E32",
"X. c #748D31",
"o. c #758E30",
"O. c #768F31",
"+. c #758C32",
"@. c #748D32",
"#. c #758E32",
"$. c #748F32",
"%. c #748E33",
"&. c #758E33",
"*. c #768F33",
"=. c #758F34",
"-. c #748E35",
";. c #778E34",
":. c #768E36",
">. c #748D31",
",. c #798D33",
"<. c #759033",
"1. c #779034",
"2. c #779035",
"3. c #779136",
"4. c #779135",
"5. c #789032",
"6. c #799133",
"7. c #7A9232",
"8. c #789135",
"9. c #799234",
"0. c #789136",
"q. c #799236",
"w. c #799237",
"e. c #7A9337",
"r. c #799435",
"t. c #7A9135",
"y. c #779438",
"u. c #799338",
"i. c #79933A",
"p. c #7B9438",
"a. c #7B9439",
"s. c #7C953A",
"d. c #7A9338",
"f. c #7F9940",
"g. c #829B3F",
/* pixels */
"e $ % % v $ % l ' % 0 4 3 3 % g p r r m & * & & & ..= = = -.$ $ ",
"e * l @ e % e e 0 $ _ 4 q % 0 / 1.R T k & * h * ..& = 3 Q # g g ",
"@ * v * @ $ l v e O $ + $ = / &.R T <.y = & e + ..- & f.& u % Q ",
"% % * * $ * % $ e @ $ e % / / p 7.7.R * * $ -.e o d = y.-.-.# = ",
"$ % $ y % l * @ r % y G $ e * e @ * * G p & Q = = [ * * 1.& O $ ",
"@ * v l @ * e * m @ e * * * $ r r k r G G * / [ e = o * 3 [ p G ",
"#.G % $ * e % $ r @ & * I m @ r @ & m e [ & e e <.[ * * * * #.* ",
"q.e + @ * * * R P * @ * & e X k $ & #.& [ e p 3 & e * & * O I G ",
"0 G 0 e O $ e q.y [ & & G R & & G p a.e e / 3 u 3 $ & & * G m R ",
"e * $ * e p #.q.G e X r #.q.r & [ / / e e y.e % <.e G * $ G V & ",
"<.G * * y e e G e #.* q.@ 0 e / e * & * $ = = $ y.Q e e l k & V ",
"- p G * y @ * <.g.q.@ G G &.p e G e [ &.p $ p e p Q <.e @ V E * ",
"* d <.h d + + e G e 3 3 s.+ $ 0 #.y r e e & p $ e #.e * e % * v ",
"& & * - ..- e u $ e 3 % 0 % $ 0 * e e #.G 1.p + $ p G * @ l ' * ",
"p - * - * = * & * q./ = # :.% g e m $ $ $ p Q p $ e $ e v % % l ",
"& * - - & * * u / & / % 3 0 % 3 r * e e / * = & % * % G #.% % @ ",
"& $ e % % e e G = u p y.g e O ,.% O % % 3 p & $ 0 $ l $ z $ $ $ ",
"= e & [ % / p 3 = = & & / ' e e   e $ 3 = # p = $ e z $ l $ ' z ",
"& u % 0 p e * % p & Q u e $   % % % %   % 3 = Q $ % e % 4 $ ! e ",
"$ & 0 ' 4 e v @ $ u = 3 & $ $ O % % b # g Q # # v @ % % v @ @ e ",
"+ p p p % l @ * # $ = = % / $ $ % % f.  % f.# % l % l % e @ $ 0 ",
"u u q.p @ @ $ @ & e o u e e e % % % % O # % % 8 @ v % @ % e :./ ",
"r.I s.e G O $ & e 0 # + e d.! 4   % % % 8 # g 3 $ l e $ e v s.' ",
"I * e / v @ $ & & 1.3 e e @ e d.% $ % % 8 Q # % * % G 0 v e e q.",
"- I q.y @ % % @ * - & & * * G e y * & & & & & - * #.s.% m e ' #.",
"e d @ e ;.t.@ @ * - + - & e % v * U & & & & P u O e v G G :.e % ",
"<.- y G ,.' l * @ - - & & e @ % m * & & & u u u $ e e e & 3 % $ ",
"y.- p * v k t.l - & - * e r * k v $ X & & u & & m e l l * $ 3 Q ",
"$ &.' e % % l ;.#.$ + r @ r k k * e $ r & o u & * G v #.p & 3 = ",
"= v e % v ,.G % m & & * X k ,.% l v 0 G & & u u O G e v 0 / 3 O ",
"e # l l v v ;.l #.$ - * r r k V q.e #.G * u - y O G % * 0 -._ = ",
"e & @ ' ,.v @ % * * r + X R k 7.;.v e [ & + U - e G e $ G # 3 3 "
};
