/* XPM */
static char *_cdfad5d930649bfd0f5e671ecd1f3f588TBl1xuJEyLRF9B[] = {
/* columns rows colors chars-per-pixel */
"32 32 216 2 ",
"   c #3A3711",
".  c #3E4209",
"X  c #3C4515",
"o  c #3A5109",
"O  c #394A28",
"+  c #444414",
"@  c #454618",
"#  c #485B16",
"$  c #515417",
"%  c #6F5600",
"&  c #5A6B1C",
"*  c #5E6619",
"=  c #597515",
"-  c #5F7A1B",
";  c #657C1C",
":  c #6C7D1B",
">  c #687819",
",  c #6D7213",
"<  c #464B21",
"1  c #5E543C",
"2  c #59493A",
"3  c #63563A",
"4  c #635839",
"5  c #645736",
"6  c #71583E",
"7  c #764F3E",
"8  c #5B6C23",
"9  c #596924",
"0  c #5C7823",
"q  c #597231",
"w  c #526731",
"e  c #656B28",
"r  c #657E22",
"t  c #6A7C24",
"y  c #647D2A",
"u  c #6B7D2B",
"i  c #657229",
"p  c #717D2D",
"a  c #757C28",
"s  c #6B6638",
"d  c #72653C",
"f  c #726C39",
"g  c #6B7A36",
"h  c #737D34",
"j  c #747B3B",
"k  c #77783A",
"l  c #545D4C",
"z  c #4C5858",
"x  c #53555A",
"c  c #515C5D",
"v  c #535957",
"b  c #695A43",
"n  c #745445",
"m  c #7A5545",
"M  c #735C43",
"N  c #74554B",
"B  c #7B534C",
"V  c #745A4B",
"C  c #7D5B4C",
"Z  c #7B5B47",
"A  c #795750",
"S  c #755A53",
"D  c #7D5C53",
"F  c #7D5D5A",
"G  c #5C7442",
"H  c #656649",
"J  c #7D634D",
"K  c #766846",
"L  c #7B6353",
"P  c #7E655A",
"I  c #7F6A5A",
"U  c #697949",
"Y  c #4F5A61",
"T  c #545A66",
"R  c #5D6363",
"E  c #7E7566",
"W  c #8C7201",
"Q  c #815F57",
"!  c #80614D",
"~  c #826454",
"^  c #896555",
"/  c #826954",
"(  c #83655A",
")  c #8A6559",
"_  c #856A5C",
"`  c #8A6C5D",
"'  c #8A745D",
"]  c #856B62",
"[  c #8C6D63",
"{  c #876B66",
"}  c #976F69",
"|  c #916E64",
" . c #8B7265",
".. c #877169",
"X. c #947464",
"o. c #94756B",
"O. c #9A746A",
"+. c #947A6D",
"@. c #977A69",
"#. c #8C7473",
"$. c #8C7A74",
"%. c #8C7A7C",
"&. c #877473",
"*. c #907674",
"=. c #947B72",
"-. c #9B7D73",
";. c #92767B",
":. c #947A7C",
">. c #A27C6F",
",. c #A17D73",
"<. c #A37671",
"1. c #65811C",
"2. c #6D841D",
"3. c #778A1B",
"4. c #5F8025",
"5. c #648223",
"6. c #6B8324",
"7. c #6C8A24",
"8. c #65822C",
"9. c #6B842B",
"0. c #6C8A2B",
"q. c #668A28",
"w. c #728424",
"e. c #73842D",
"r. c #728A2D",
"t. c #768829",
"y. c #6B8332",
"u. c #6D853B",
"i. c #6F8B33",
"p. c #738432",
"a. c #728B33",
"s. c #768539",
"d. c #7B8B36",
"f. c #789337",
"g. c #72952F",
"h. c #6D8440",
"j. c #778644",
"k. c #72855A",
"l. c #7C8A7B",
"z. c #A68C11",
"x. c #8F8C2F",
"c. c #959826",
"v. c #838D35",
"b. c #A99222",
"n. c #ABAA33",
"m. c #D8BC3B",
"M. c #DAC834",
"N. c #EAC338",
"B. c #E9CA31",
"V. c #808751",
"C. c #9A9254",
"Z. c #9C816E",
"A. c #838B7C",
"S. c #9B8175",
"D. c #899C6C",
"F. c #A28274",
"G. c #A4867A",
"H. c #A58A7D",
"J. c #AC8A7D",
"K. c #A88977",
"L. c #A7907E",
"P. c #A8927C",
"I. c #B7A963",
"U. c #AFAD72",
"Y. c #D6BF7C",
"T. c #DEC647",
"R. c #E2C54A",
"E. c #DBC879",
"W. c #7B9281",
"Q. c #849584",
"!. c #8B9788",
"~. c #929387",
"^. c #A58C82",
"/. c #AB8C83",
"(. c #AB8D88",
"). c #A78783",
"_. c #B18E83",
"`. c #AE9286",
"'. c #AB928A",
"]. c #A79186",
"[. c #AE9791",
"{. c #9DAF99",
"}. c #A8A896",
"|. c #B5AB94",
" X c #ADAE90",
".X c #C2D2B7",
"XX c #C4BBCB",
"oX c #BEC8D3",
"OX c #BED3D1",
"+X c #BECCE9",
"@X c #BECAF0",
"#X c #CBCCCC",
"$X c #CAC8CF",
"%X c #C4D2CB",
"&X c #CAD5CB",
"*X c #C3CDD6",
"=X c #C6C6DE",
"-X c #C2CADC",
";X c #CBCBDB",
":X c #CACAD4",
">X c #D6CAD9",
",X c #CBD3D6",
"<X c #C6D2DA",
"1X c #CBD6D7",
"2X c #D1D5D2",
"3X c #C5CBE3",
"4X c #CBCBE3",
"5X c #CAC8E9",
"6X c #D3CDE2",
"7X c #D9CDE5",
"8X c #D6CBEA",
"9X c #CAD0E0",
"0X c #D4D1E2",
"qX c #D5D2EB",
"wX c #DAD6E5",
"eX c #D2D3F2",
/* pixels */
"y.y 9.t r.r 0 i.s.g 9.0.a u e.p.r.t.t.v.6.6.0.6.5.q.5.4.5.r.5.8.",
"y.9.6.; 6.9.9.8.p.u 0.0.t e.p.p.r.r.t.a 5.5.e.9.0.5.0.6.q.; 0.9.",
"; 6.0.6.> > y.a.y.y 5.5.1.0.p.i.0.g.r.w.8.4.y.y y.9.t f.i.q.8.9.",
"9.r : 2.w.t u u 0.0 0 5.5.0.a.a.a.f.a.i.8.4.0.8.u e.e.d.g.0.y u ",
"i > 2.> : w.2.> 2.: w.p.p.p.h k j U h s.s.9.0.0.5.w.2.1.7.2.i i ",
", c.n.b.> 6.7.: w.a p.h s f d d d d f f j j 9.t.t.0.= 3.c.n.V.W ",
"z.m.B.M., = r t h k K M K _ ^ 7 Z ^ ` M 6 K f h p.w.5.3.M.B.M.W ",
"b.R.N.R., o 8 V.K K M A ..).<.B B O./.` M J 6 s e g 8.v.T.N.R.% ",
"V.U.|.I.< O H K M X.F.D ] ^.X.n m o.J._ ! F.O.M d s G h.U.E.C.$ ",
"{.}.|.|.}.l b V S <.J.! I L.X.M n X./.^ ! K.-.S b H H  X X|. X~.",
"!.#XXX>X$.b I o.V ,.J.! _ P.O.n n +.P./ ! J.S.S o.I b ^.$XXX:XR ",
"!.#X>X7X#.C J.o.A -.J.Z _ J.} B V X.P.~ ! J.=.N ,._.B :.8X5X9Xv ",
"l.%X+XqX*.^ ).-.S S.H.D _ J.} B B o./._ Q ).-.S -.(.B ;.5X@XoXc ",
"W.OX+X=X#.~ (.=.V S.(.D ] ^.} B B } (.{ F ).S.V o.).) ;.eX@X1Xz ",
"Q.%X-XwX*.Q (.$.N S./.S  .].O.m m X./._ S ).Z.6 =./.( ;.4X3X<Xv ",
"W.,X*X>X*.Q [.:.N F.(.S ] `.O.m 7 X.`.] F /.K.6 -.].( ;.7X4X:Xx ",
"~.#X4X>X;.A { { B [ [ C C | ) Z m ) | D D | ^ m ` [ N :.7X=X;Xx ",
"A.#X;X6X#.N P b A D ! n C Q m m Z m D D N C ! B B ( n :.7X5X:Xx ",
"l.#X-X0X#.P ^.S.B G.K.C _ J.O.m n o.(.] ~ K.S.n S.].I %.6X-X*Xc ",
"l.%XoX0X&.F ^.+.N -.K.J  .]. .N N o./.] L G.F.n +.S.L &.4X3X*Xc ",
"l.OXOXqX%.L ].$.N ).H.V _ (.*.N N +.(.( S H.G.N *.].I %.wX3X*Xz ",
"l.&X3X9X..J ].$.S ,.G.C { (.} N N  .(.{ Q H.<.N +.^.S &.4X-X<XY ",
"Q.%X3X0X#./ H.-.m >.K.J [ /.| n m X.J.) D J.<.m -.].( :.wX-X<Xz ",
"!.,X3X6X#./ G.-.m F.K.Z ) (.o.m n X.J.) Q J.>.m +.J.D ;.7X-X<XY ",
"Q.:X5X8X&.( '.=.A ,.K.!  .].O.N m X.P._ L /.F.N -.'.F %.8X=X;XT ",
"A.1X3XqX%.S ] ] S ] ' M J  ./ V M / ' J S  .` V I  .S %.qX3X-XY ",
"!.%X-X0X{ l b 1 3 3 4 5 4 5 3 5 6 1 1 5 3 1 4 4 1 H 2 &.2XoX,Xz ",
"D..X1X&Xb   X < @ + + @ + X @ + + + . X @   + @ @ @   E &X&X%Xl ",
"u.D.k.G @ + # & i 8 9 9 & & i e * e & 8 9 9 8 & 8 i i f k.U G X ",
"8.g q w # * 9.6.e.y y y ; 2.p e.a w.9.0.y.0 8.6.= y.p.h g q # o ",
"7.r u.g h p r.6.0.t y.8.5.w.e.s.d.a.0.a.8.8.g.q.5.0.> p h.u.h.8.",
"2.r y.j v.p.; 6.9.0.y.- ; 7.d.d.d.p.0.0.8.8.q.2.7.7.t.9.y.g y.u."
};
