/* XPM */
static char *_3ca22f3929f42adfa9ad7e043afbd97rJX7NI6NIu1izEDw[] = {
/* columns rows colors chars-per-pixel */
"32 32 216 2 ",
"   c #2B2E01",
".  c #363907",
"X  c #2F3E17",
"o  c #3B3915",
"O  c #443E1C",
"+  c #483F22",
"@  c #3A450C",
"#  c #3C4D0F",
"$  c #35450A",
"%  c #3B4314",
"&  c #3A4A13",
"*  c #3D411B",
"=  c #374815",
"-  c #43441C",
";  c #4B4C1B",
":  c #434711",
">  c #4D5818",
",  c #515E19",
"<  c #535408",
"1  c #675200",
"2  c #4F601B",
"3  c #55691C",
"4  c #5C7C1B",
"5  c #637C1B",
"6  c #6A7C1E",
"7  c #657818",
"8  c #485429",
"9  c #5D583B",
"0  c #524F2A",
"q  c #6C5D3D",
"w  c #675938",
"e  c #705B3D",
"r  c #72523B",
"t  c #566B23",
"y  c #5C6D25",
"u  c #5E652C",
"i  c #5B6628",
"p  c #5E7223",
"a  c #5D742A",
"s  c #666B27",
"d  c #647C23",
"f  c #697D24",
"g  c #63732C",
"h  c #69742B",
"j  c #657D2A",
"k  c #6A7D2B",
"l  c #637623",
"z  c #727C2D",
"x  c #6D623C",
"c  c #6B6636",
"v  c #74663D",
"b  c #736B3C",
"n  c #796A3A",
"m  c #627433",
"M  c #6C7C39",
"N  c #697934",
"B  c #717D33",
"V  c #747439",
"C  c #757C3B",
"Z  c #757238",
"A  c #6E5C43",
"S  c #685748",
"D  c #705444",
"F  c #745C43",
"G  c #745449",
"H  c #7A564C",
"J  c #745B4A",
"K  c #7C5A4C",
"L  c #7A5946",
"P  c #745E52",
"I  c #7D5D53",
"U  c #7D5D59",
"Y  c #795654",
"T  c #696142",
"R  c #756443",
"E  c #766942",
"W  c #776249",
"Q  c #7B624D",
"!  c #7A6948",
"~  c #69734D",
"^  c #7E7C45",
"/  c #696C5C",
"(  c #7D6453",
")  c #79645C",
"_  c #75705D",
"`  c #5C6E70",
"'  c #7D6363",
"]  c #7B6C65",
"[  c #626C7B",
"{  c #696D79",
"}  c #656D76",
"|  c #647276",
" . c #65717B",
".. c #7A7265",
"X. c #847C33",
"o. c #845F4F",
"O. c #815D54",
"+. c #835E5B",
"@. c #82684B",
"#. c #836255",
"$. c #896455",
"%. c #846A55",
"&. c #85655A",
"*. c #85695A",
"=. c #8B6B5C",
"-. c #896659",
";. c #91695F",
":. c #87715E",
">. c #93725E",
",. c #8B6C62",
"<. c #896865",
"1. c #926E65",
"2. c #946E6A",
"3. c #8C7263",
"4. c #8E7368",
"5. c #927263",
"6. c #967565",
"7. c #847379",
"8. c #65831D",
"9. c #6C831B",
"0. c #74821B",
"q. c #72891F",
"w. c #658225",
"e. c #6B8325",
"r. c #618825",
"t. c #6B8825",
"y. c #65832B",
"u. c #6B832C",
"i. c #6C892B",
"p. c #618D2B",
"a. c #738324",
"s. c #718A26",
"d. c #71862B",
"f. c #728A2D",
"g. c #7A8326",
"h. c #74902C",
"j. c #6E8532",
"k. c #6F8930",
"l. c #6A833A",
"z. c #728433",
"x. c #798336",
"c. c #738B32",
"v. c #798B33",
"b. c #74833B",
"n. c #7A843B",
"m. c #758B3B",
"M. c #7B8839",
"N. c #749032",
"B. c #789234",
"V. c #7C933A",
"C. c #768754",
"Z. c #71894D",
"A. c #73846B",
"S. c #798A6D",
"D. c #748668",
"F. c #7C8B78",
"G. c #7F907D",
"H. c #82800F",
"J. c #8B8519",
"K. c #A99E1E",
"L. c #8A8C27",
"P. c #B1A92C",
"I. c #CFBD35",
"U. c #CAB92D",
"Y. c #E7C638",
"T. c #AB9557",
"R. c #B49D57",
"E. c #848778",
"W. c #829577",
"Q. c #B1A867",
"!. c #8C8A4F",
"~. c #CEB652",
"^. c #D5BA70",
"/. c #D9C548",
"(. c #DEC753",
"). c #E5C14B",
"_. c #676F81",
"`. c #958284",
"'. c #988286",
"]. c #9A818B",
"[. c #938985",
"{. c #8C858C",
"}. c #9EA699",
"|. c #A8A798",
" X c #ACB19D",
".X c #ACABA5",
"XX c #ADB0A7",
"oX c #BBBCB5",
"OX c #B7B4AF",
"+X c #BAC8A7",
"@X c #BCC7B5",
"#X c #C3C7B6",
"$X c #BFCCC1",
"%X c #BECADC",
"&X c #BDC2DA",
"*X c #BCC8E2",
"=X c #C2CAC7",
"-X c #C3D4C2",
";X c #C9D2CB",
":X c #C2C6DC",
">X c #CBC5DC",
",X c #C3CADD",
"<X c #CDCCDE",
"1X c #C8C8D4",
"2X c #D1C6DB",
"3X c #C9D2DD",
"4X c #D9D8DD",
"5X c #C2C6E4",
"6X c #C6CCE2",
"7X c #CCCCE3",
"8X c #CACAE5",
"9X c #D2CEE6",
"0X c #D2CDE9",
"qX c #C8D3E3",
"wX c #D7D5EB",
"eX c #D8D3F1",
/* pixels */
"i.w.f u.u.u.N k.d.u.u.y.j.y.w.f.s.s.f.f.y.y.j.w.r.p.p.l.j l.j u.",
"w.u.f f f f j.u.e.f c.u.j.j.i.t.h.f.f.e.y.y.z.u.i.r.y.l.y.j.u.u.",
"7 e.g.e.5 5 k x.s.7 d j j k v.N.f.B.v.f.u.y.f 6 e.t.e.L.u.u.f k.",
"e.6 f e.8.9.f d 6 7 z M B u.c.c.h.B.c.u.k u.d.z f a.a.h.c.c.w.4 ",
"5 t.5 q.8.8.t.6 6 z L.V C l.z.z.f u.u.m.n.B x.d.a.a.e.u.m.y.d 8.",
"7 7 0.0.5 i.e.6 x.Z R x M g l z.u.f e.x.N c Z n.f d.4 d a.q.9.q.",
"J.P.U.P.0.k z X.n e v x u 2 3 u.u.w.c.n.Z c R q c x.g a.K.I.P.H.",
"L./.Y.).L.2 n @.r @.3.x : $ 3 u.w.e.c.C b @.;.D q , g L.).Y.(.J.",
"z ~.)./.< . ! F &.O.1.A @ : p e.i.N.v.x.b $.+.+.( w 8 s ~.).~.1 ",
"!.Q.^.R.V 9 T ( 1.U 2.J - # p j.u.k.d.b.E -.<.&.3.9 S ^ T.^.T.X.",
"}. X|.OX.X_ q ( :.I 2.G * # g z.f.u.y.x.R $.&.#.:.A S .XoX.X.X|.",
"F.;X5X5X{.S ( W :.( 2.D * = g j.c.u.i.M.R -.*.#.:.W ( ..8X*X*X` ",
"F.=X5XeX`.) ,.( 3.L >.F - $ t j.k.i.i.M.E *.$.o.;.o.<.' 0X5X8X_.",
"..$X5X7X`.U 2.Y 1.L >.F - $ t j.y.t.t.c.E *.$.@.-.+.1.<.>X5X8X_.",
"F.-X%X7X].Y 2.O.1.O.>.q * = m y.u.i.e.x.! &.$.$.$.I *.' >X8X5X} ",
"D.@X%XwX].U ,.O.1.H $.D o = a l.u.w.6 z.R O.O.$.*.%.*.' <X&XqX| ",
"D.-X%X8X].U ,.K O.G K J * & t j.y.a r.z.R L H I K $.;.<.1X*X3X` ",
"S.$X%X0X`.G ( G K o.;.D * = a u.p d w.B E #.O.H O.G @.) :X%XqX` ",
"S.$X%X0X'.G #.K -.o.6.F - $ 3 w.k k d h v *.=.( &.G L ) 8X5X6X .",
"A.@X5X0X'.P ,.#.,.o.5.e o & 2 l k k e.z v %.&.#.=.#.$.' >X5XqX[ ",
"A.$X6X0X`.( ,.I 1.K >.q o = y d k z f B v %.*.) *.#.=.<.>X5X9X{ ",
"F.@X%X9X`.I ,.I 1.K 5.q - % m N f f h h v $.*.&.<.I =.' 2X5X<X{ ",
"F.$X%X0X`.K <.( ,.P 5.q * = m k l d y.B b %.&.( 1.O.,.' 2X,X1X{ ",
"W.-X,X0X`.P 3.U 4.J ! x * = m Z.j d u.z.b R Q &.-.I ,.) 1X,X3X .",
"A.;X:XeX`.W 3.S I F w ; . @ a z.u.y.e.z.V c q J J *.( ..1X:XqX} ",
"G.$X1X9X[.S ) S 9 O .   @ 2 g j.i.i.e.u.B V c w w v A ] 1X7X6X[ ",
"G.$X,X<X{.9 9 + o . : > y u.l f u.t.d 5 a.z.B s i u 9 / =X:XqX_.",
"W.-X=XwX7.o O o ; > g j u.a.d a.e.e.5 5 5 6 u.j.k h i ~ ;X1XwX{ ",
"Z.+X#X#X~   ; s N m j u.8.9.f.e.d.e.e.e.8.4 w.u.u.c.C C.#XoXoX/ ",
"Z.Z.~ 8 @ @ i h j.j j u.8.9.f.f a.e.d.i.8.r.t.t.d y.j.b.C.~ 8 X ",
"r.a m y y s l z.k.y.y.r.8.q.f.z.f.u.f.c.t.w.i.u.e.e.e.j.l.M 3 t ",
"8.r.N b.m.c.f 5 i.r.y.4 8.t.z.V.B.c.f.i.w.d j.j.e.f.w.d m.y.y.y."
};
