/* XPM */
static char *_8b8c84f69f341c2acb811505b76d74fO4jaUDVTAXbyHYOf[] = {
/* columns rows colors chars-per-pixel */
"32 32 232 2 ",
"   c #361E12",
".  c #2C220B",
"X  c #2C2B0E",
"o  c #2B2505",
"O  c #342B05",
"+  c #31230C",
"@  c #352A0B",
"#  c #3D2B0B",
"$  c #3A240A",
"%  c #2B370D",
"&  c #3B320D",
"*  c #343D0D",
"=  c #2E2B13",
"-  c #2E2D1C",
";  c #252D16",
":  c #342212",
">  c #3A2313",
",  c #342D12",
"<  c #3B2D14",
"1  c #35251A",
"2  c #3A261C",
"3  c #342B1D",
"4  c #3B2A1C",
"5  c #2E3412",
"6  c #2C3717",
"7  c #323514",
"8  c #3A3313",
"9  c #33351B",
"0  c #353B1A",
"q  c #3A3C1D",
"w  c #383A18",
"e  c #2E2E26",
"r  c #342C20",
"t  c #382A23",
"y  c #2D332A",
"u  c #2C3528",
"i  c #333225",
"p  c #3B3522",
"a  c #333B22",
"s  c #3A3B23",
"d  c #33332A",
"f  c #3B3C2B",
"g  c #373E2E",
"h  c #353E33",
"j  c #412613",
"k  c #442A13",
"l  c #4A2F15",
"z  c #412D1A",
"x  c #4B341C",
"c  c #463618",
"v  c #52371A",
"b  c #493522",
"n  c #443D25",
"m  c #43352C",
"M  c #4B3C2B",
"N  c #473929",
"B  c #553722",
"V  c #563D22",
"C  c #5A3E25",
"Z  c #4A3732",
"A  c #4A3B32",
"S  c #443837",
"D  c #503E30",
"F  c #384909",
"G  c #3C441A",
"H  c #364618",
"J  c #3B4722",
"K  c #3B452C",
"L  c #3C4435",
"P  c #43441C",
"I  c #454819",
"U  c #4D541F",
"Y  c #43501A",
"T  c #50551B",
"R  c #56691A",
"E  c #5E791F",
"W  c #5E741F",
"Q  c #637D1E",
"!  c #41442E",
"~  c #474A29",
"^  c #51422E",
"/  c #584426",
"(  c #465524",
")  c #4B542A",
"_  c #4D5B2A",
"`  c #48443D",
"'  c #5C4633",
"]  c #564637",
"[  c #4B5530",
"{  c #5C5638",
"}  c #634325",
"|  c #664D2E",
" . c #6D4E2F",
".. c #674823",
"X. c #714E2E",
"o. c #76522C",
"O. c #614635",
"+. c #684C33",
"@. c #6D543C",
"#. c #6A5437",
"$. c #7C5B33",
"%. c #715A3C",
"&. c #6B5A26",
"*. c #4F6920",
"=. c #536224",
"-. c #5F6E2C",
";. c #566728",
":. c #5F7B24",
">. c #5B6437",
",. c #5F7837",
"<. c #626A2E",
"1. c #647D24",
"2. c #6B7D25",
"3. c #657E2A",
"4. c #6B7E2B",
"5. c #63742A",
"6. c #727E28",
"7. c #636C3B",
"8. c #687435",
"9. c #6B7C34",
"0. c #6C723C",
"q. c #667739",
"w. c #727F37",
"e. c #7A6139",
"r. c #463D45",
"t. c #795B44",
"y. c #6C5B4B",
"u. c #636945",
"i. c #7D6346",
"p. c #7A644A",
"a. c #677446",
"s. c #787C48",
"d. c #7E6853",
"f. c #637157",
"g. c #767856",
"h. c #8B663B",
"j. c #97683A",
"k. c #B17B3D",
"l. c #A67D3D",
"z. c #815C41",
"x. c #826346",
"c. c #8C6A44",
"v. c #82674C",
"b. c #8E6D4C",
"n. c #896648",
"m. c #936E4A",
"M. c #976646",
"N. c #8A724C",
"B. c #8F7041",
"V. c #93734D",
"C. c #9C7A4E",
"Z. c #997246",
"A. c #8B6F54",
"S. c #916D53",
"D. c #8C7355",
"F. c #897258",
"G. c #947252",
"H. c #987552",
"J. c #9E7C54",
"K. c #9C795B",
"L. c #9A7856",
"P. c #A9734B",
"I. c #AD7D4C",
"U. c #A87A49",
"Y. c #B37D45",
"T. c #B37E4B",
"R. c #A67D58",
"E. c #B27D51",
"W. c #BC7F50",
"Q. c #977C61",
"!. c #65841E",
"~. c #5D8129",
"^. c #658225",
"/. c #6B8325",
"(. c #6C8925",
"). c #64832C",
"_. c #6B832B",
"`. c #6E892C",
"'. c #67882F",
"]. c #708326",
"[. c #708A23",
"{. c #71852C",
"}. c #748B2C",
"|. c #788C2B",
" X c #74902C",
".X c #6C8533",
"XX c #678C36",
"oX c #6C8A35",
"OX c #6F8E3C",
"+X c #698337",
"@X c #728533",
"#X c #738B33",
"$X c #768E3C",
"%X c #778739",
"&X c #6F933B",
"*X c #76903A",
"=X c #6E8343",
"-X c #6E8B41",
";X c #738643",
":X c #738A43",
">X c #768A48",
",X c #7D9245",
"<X c #718154",
"1X c #9A8351",
"2X c #AC8145",
"3X c #AD844C",
"4X c #B48245",
"5X c #B88346",
"6X c #B4834B",
"7X c #BA824A",
"8X c #BC894A",
"9X c #B28A4A",
"0X c #AD8453",
"qX c #AC8954",
"wX c #A4835D",
"eX c #AC845C",
"rX c #AB8A5C",
"tX c #A6875A",
"yX c #B38453",
"uX c #BA8252",
"iX c #B38A55",
"pX c #B2865A",
"aX c #B38B5C",
"sX c #B98B5D",
"dX c #BC8957",
"fX c #A38461",
"gX c #AE8E6A",
"hX c #AA8463",
"jX c #B38A64",
"kX c #B68B67",
"lX c #B49369",
"zX c #A99165",
/* pixels */
"6.2.4.3..X3.E (.[.].%Xg.f.a.=X.X/.(.[.#X9.oX'.~.1.oX_.2.].(.'.:.",
"].2.2.2..X1.`.(.9.w.>.P 5 6 q.>X,X*X}.}.3.).'.).*X^.1.`.].Q ~.XX",
"Q Q ].{.1.3.'.>X7.+ $ ..t.x 8 ) _ q.*X}.^.).).3..X^.!.|. X).XXoX",
"!.(.!.{.5.+X7.G . O.L.R.kXK.| 8 X ) +X^.(.^.`._.1.{.}.|. X_.3.:.",
"1.^.2.4.;X7.q 8 N.zXjXjXsX3XrX1Xp g ( *.'.^.(././.}.^.^.#X(.Q !.",
"1.1.}.@X0.& b Q.qXqXG. .o.1XqXtXN - H _ .X(.}.}.{.{.E :.#X`./.}.",
"}.}._.9.q l wXaXiXh.< 1 1 x U.rX+.4 s >.%X_..X#X.X#X^.^.(.].}.].",
"*X_.8.U # G.sXT.iX..t r.r.: z.kXfXx + / 0.<.5.9..X3.^._.Q Q }.|.",
"@X;Xu.. e.aX6XT.aX/ t r.S 2 o.aX0XJ.| k @ o J =X).^.).^.3.@X{.|.",
"+X;X! N wX3X6X5XyXG.2 t 2 l U.yX2XI.kXS.F.+.9 _ *.).4.3.@X@X|.!.",
"OX,.5 { zX9X2X7X6XaXn.}  .V.yXY.4X7XE.hXlXD.. 0 ( ;X$X%X4.{.@X/.",
"-X>.6 p / C.iXY.T.uXkXpXiXiX6X7X6X5XI.yX3XrX%.. q >.a.8.w.{.{.{.",
";XG ; d 3 C 0X7X7XT.I.yX9XI.yXI.5X4XdXT.4X3XrX#.& , 9 7 8.Q {./.",
"a.H g ` S 2 C.4XW.Y.6XI.3XaXaXyX6X6XT.T.8XY.yXjXV.F.m s =.R 2./.",
"g.8 f ` S   m.dXY.uXpXwXG.x.N.tXpX6X6X7Xk.8XE.E.iXzXD 3 F F Q /.",
"u.s p m : b eX0X6XyXR.} j j < / C.0X9X4X5X7XW.W.yXaXt.: P Y 8.9.",
"u.6 3 4 x V.rX0X3XtXB > b M Z 2 z wXqX4X4X6XuXT.6X6XwXV . n ) { ",
"a.7 #.D.J.eXeX0XaX$.> Z ] A Z Z 2 %.qX9X4X6XpXpXyXyXyXR.t.p ; ! ",
"g.7 #.zXaXiXE.W.aX..z A m D M ] 2 O.eXT.yXaXx.'  .1XaXR.gXp.9 L ",
"s.I v jXI.6XW.T.kXX.> A M A N N 2 O.kXdXI.h.: r : l R.pXZ.%.a e ",
"9.;.j K.qX4X7X6XyXc.> m ] N ^ N > z.yXI.kXB t ` M j n.hXb./ @ J ",
"#X9.# @.iX4XY.uXyXtXO.1 < b z $ C gX9X6XjXB t S m   z.m.n.z q 0 ",
"&X-X~ c 1X9XY.6XyXhXhX#.l k l  .wX0X2X4X0Xc.>   2 v S.b.@.. G 0 ",
"XX-Xq.O &.qXiX3XyXI.pXrXfXL.hXeX0X3X5X4X4XeXA.t.@.v.D.p., s 0 J ",
"~.&X,XT $ i.eX3X4X4X5X0XyXpXE.eX0X6X7XY.5X6XaXwXS.A.d.^ 7 0 0 L ",
"oX).4.%X~ > i.R.l.8X8XT.yXpXjXeXR.yXuXW.Y.2Xj.h.m.A.' = 0 H H [ ",
"$X#X/.#Xs.c 4 t.G.Z.P.R.0XH.x.m.R.kXP.P.j.j.h.h.x.' X 7 J 6 Y <.",
"#X#X XQ $X0.p 4 +.x.G.S.| # > > v z.M.M.j.Z.V.p.N , w G % F <.@X",
"_..X X^.4.w.0.P ; N y.{ t r 4 p 2 b n.m.h.i.^ p 3 7 q F F R _.3.",
"4.#X(./.{.{.:Xq.) 9 = p d y n i d r @.@./ 8 - a 0 7 * I 5.`.^.E ",
"{.2.1.`.@X#X#X'..X=.I 0 - u r e y y - 3 = 5 G % 5 G ( 5._.oX#X/.",
"/.2.3.#X|.}.1.^.^.+X-.) K K f g y h y g 0 6 H H ( >.8.+X.X^._./."
};
