/* XPM */
static char *_fa6b65b198a4941b2c5ccac4b90f37be44lESHUr9qgotEn[] = {
/* columns rows colors chars-per-pixel */
"32 32 9 1 ",
"  c None",
". c #3A3737",
"X c #827C7C",
"o c #BC8B6D",
"O c #C49172",
"+ c #CDAE67",
"@ c #B7B3B2",
"# c #D6B39D",
"$ c #EFE9E7",
/* pixels */
"                                ",
"                                ",
"                                ",
"                                ",
"      ...             ...       ",
"      .@$.           .$@.       ",
"      .$$$.         .$$$.       ",
"      .$o$@.       .@$o$.       ",
"      .$#@$X.     .X$@#$.       ",
"       .###$X.....X$###.        ",
"       .O##$@X...X@$##O.        ",
"        .##@$.@@@.$@##.         ",
"         .#@$@$$$@$@#.          ",
"        ...@$$$$$$$@...         ",
"       .X@@X@$$$$$@X@@X.        ",
"       .@@@X.@$$$@.X@@@.        ",
"      .X$@X@.@@@@@.@X@$X.       ",
"      .@$.@$X@$$$@X$@.$@.       ",
"      .$$.$$@$$$$$@$$.$$.       ",
"      .$$.@$$.+++.$$@.$$.       ",
"      .@$$.$$$...$$$.$$@.       ",
"      .X@$$.X@@.@@X.$$@X.       ",
"       .@@$$...@...$$@@.        ",
"       ..@@$@$$$$$@$@X..        ",
"       .XX.$X.@$@.X$.X.         ",
"      ..X..@@@X.X@@@.XX.        ",
"      .@@.@$$$...$$$@.@@.       ",
"      .$$.$$$$. .$$$$.$$.       ",
"       .......   .......        ",
"                                ",
"                                ",
"                                "
};
