/* XPM */
static char *_c974f41ed9b411ef43a60911637d4dazRU0TkosxHEBRk4k[] = {
/* columns rows colors chars-per-pixel */
"32 32 32 1 ",
"  c #A79A87",
". c #A89B88",
"X c #A99C89",
"o c #AA9D8A",
"O c #AB9E8B",
"+ c #AC9F8C",
"@ c #ADA08D",
"# c #AEA18E",
"$ c #AFA28F",
"% c #B0A390",
"& c #B1A491",
"* c #B2A592",
"= c #B3A693",
"- c #B4A794",
"; c #B5A895",
": c #B6A996",
"> c #B7AA97",
", c #B8AB98",
"< c #B9AC99",
"1 c #BAAD9A",
"2 c #BBAE9B",
"3 c #BCAF9C",
"4 c #BDB09D",
"5 c #BEB19E",
"6 c #BFB29F",
"7 c #C0B3A0",
"8 c #C1B4A1",
"9 c #C2B5A2",
"0 c #C3B6A3",
"q c #C4B7A4",
"w c #C5B8A5",
"e c #C6B9A6",
/* pixels */
"2%&:25,22,-::%&-:::+%2,57::3:%&2",
":&-2252:22&:&#&-&&:#%,,552:,::::",
"#%%,222:2,:::-::#&-&#&&32253-&&&",
"&&#:-&22&-%&,::&&::::&&22:582%%&",
"2,:52&33&:&:232-:2,,:&&25::5532:",
"&-28822,,:-:2552:2:::&&:,,,2,57,",
"&&2588,&::%%:22&:5252---#:,::552",
"2,225q2#22::255&288e8::#oo&2555:",
":277:52285:,:7-5,25qq7:&#5,:2555",
":&25225885,,:5-52558853,252,353:",
"--353-8e352:23225535777555::555:",
"-,353:77,:2::235855358qq53::5552",
"&2:82375&-:#-:55775558q885:,323:",
":2:22552--:&&&555775587585222:22",
":&:,25:::&&&&%555888555:2322:,5,",
"-o:253:&%%&-%#355888552-2222::5:",
"&%&25:%#.&-#%&25:3575:&#::235222",
"&%&:2,:-%-:%&-::2,255&+#&-233522",
"&:&-,2,:::::222,5322:##&&-2353,-",
":::&:-&&::::23225e7&%%%&-::332,,",
",:&::&%&,,::::&:885%#&::&%&23,,3",
"-&&:2:&::::::&&:52&%&&-::%&:2::2",
"&:::2::&::,2:-&2::&#&-&&:&&:::::",
"&::&-:#o::,22:&::,:#:2-.&&&&-22:",
"32:2&:&%,,:232-&2::&::2&&:%,2:3,",
"::22::# +:5575,:222&&,2&&-,2:2,2",
":,322:&oo&:2,:-255,,:522::2#o&&2",
"2:323:&oo##&%o#272:2:225235#.%&2",
"-&257-#o o%&%##::-%-%,22,52&%%::",
":&,55,&%o&&##&#o#&&##23:25::&#::",
"2:,32322&:&+#&#+##&&&25382::-&:2",
"%::,:52-2&%:2&%:&o#&2-355:2,-#o&"
};
