/* XPM */
static char *f1177a2cf0d34bf5b7348a466a76f256sk98LyNBxdRK8qB3[] = {
/* columns rows colors chars-per-pixel */
"32 32 5 1 ",
"  c None",
". c #3A3737",
"X c #827C7C",
"o c #B7B3B2",
"O c #EFE9E7",
/* pixels */
"                                ",
"      ...             ...       ",
"     .OOo..         ..oOO.      ",
"     .OOOOX.       .XOOOO.      ",
"     .XOOOoX.     .XoOOOX.      ",
"      .oOOOoX.....XoOOOo.       ",
"       .XOOOo.....oOOOX.        ",
"        .XOOOoXXXoOOOX.         ",
"         .oOOoooooOOo.          ",
"          .oOoooooOo.           ",
"         .XOoooooooOX.          ",
"        ..oooOOOOOooo..         ",
"        ..ooOOOOOOOoo..         ",
"        ..oOOOOOOOOOo..         ",
"        .oXOOOOOOOOOXo.         ",
"        .o.ooOOOOOoo.o.         ",
"         .oXoOOOOOoXoX.         ",
"         ..ooOOOOOoo..          ",
"         .oooOOOOOooo.          ",
"        .XoooOOOOOoooX.         ",
"        .ooOOOOOOOOOoo.         ",
"       .XoOOOOOOOOOOOoX.        ",
"       .XOOOOOOOOOOOOOX.        ",
"       .oOOOOOOOOOOOOOo.        ",
"       .OOOOOoXXXoOOOOO.        ",
"       .oOXoO.oOo.OoXOo.        ",
"        .o..XoOOOoX..o.         ",
"       ..X...XOOOX...X..        ",
"       .ooX.........Xoo.        ",
"       .OXX.       .XXO.        ",
"        ...         ...         ",
"                                "
};
